<svg xmlns="http://www.w3.org/2000/svg" width="200" height="188.817" viewBox="0 0 200 188.817"><g transform="translate(0 -0.5)"><path d="M218.057,75.393a3.926,3.926,0,0,1-1.309-.226L197.161,68.2l-19.588,6.966a3.907,3.907,0,0,1-5.214-3.789l.572-20.781L160.255,34.121a3.9,3.9,0,0,1,1.991-6.128l19.94-5.878L193.939,4.966a3.909,3.909,0,0,1,6.445,0l11.752,17.149,19.94,5.878a3.9,3.9,0,0,1,1.991,6.128L221.391,50.6l.572,20.78a3.908,3.908,0,0,1-3.906,4.015ZM169.923,33.876l10.048,13.06a3.9,3.9,0,0,1,.809,2.489L180.326,65.9l15.526-5.521a3.914,3.914,0,0,1,2.618,0L213.995,65.9l-.452-16.472a3.9,3.9,0,0,1,.809-2.489L224.4,33.876l-15.805-4.66a3.9,3.9,0,0,1-2.118-1.538l-9.316-13.593-9.316,13.593a3.9,3.9,0,0,1-2.118,1.538Zm0,0" transform="translate(-97.16 -1.688)" fill="#ff4343"/><path d="M386.453,37.739a3.906,3.906,0,0,1-3.9-4.013l.24-8.756-5.341-6.943a3.9,3.9,0,0,1,1.991-6.128l8.4-2.477L392.792,2.2a3.907,3.907,0,0,1,6.445,0l4.952,7.225,8.4,2.477a3.9,3.9,0,0,1,1.993,6.128l-5.342,6.943.241,8.756a3.906,3.906,0,0,1-5.212,3.787l-8.254-2.934-8.252,2.934A3.926,3.926,0,0,1,386.453,37.739Zm9.561-11.212a3.884,3.884,0,0,1,1.308.226l4.192,1.489-.122-4.446a3.894,3.894,0,0,1,.809-2.489l2.711-3.526-4.266-1.257a3.905,3.905,0,0,1-2.118-1.538l-2.515-3.67-2.515,3.67a3.907,3.907,0,0,1-2.118,1.538l-4.266,1.257,2.713,3.526a3.9,3.9,0,0,1,.807,2.489l-.122,4.446,4.192-1.489A3.908,3.908,0,0,1,396.015,26.527Zm0,0" transform="translate(-229.512)" fill="#ff4343"/><path d="M65.091,37.739a3.926,3.926,0,0,1-1.309-.226L55.53,34.579l-8.252,2.934a3.906,3.906,0,0,1-5.214-3.787l.241-8.756-5.342-6.943A3.908,3.908,0,0,1,38.956,11.9l8.4-2.477L52.308,2.2a3.909,3.909,0,0,1,6.445,0L63.7,9.422,72.1,11.9A3.906,3.906,0,0,1,74.1,18.028l-5.342,6.941L69,33.725a3.906,3.906,0,0,1-3.9,4.015ZM55.53,26.527a3.893,3.893,0,0,1,1.309.226l4.192,1.489L60.909,23.8a3.9,3.9,0,0,1,.807-2.489l2.713-3.526-4.266-1.257a3.9,3.9,0,0,1-2.118-1.538l-2.515-3.67-2.515,3.67A3.907,3.907,0,0,1,50.9,16.523l-4.266,1.257,2.713,3.526a3.9,3.9,0,0,1,.809,2.489l-.122,4.446,4.192-1.489a3.885,3.885,0,0,1,1.308-.226Zm0,0" transform="translate(-22.031)" fill="#ff4343"/><path d="M249.906,401.82a3.884,3.884,0,0,1-.761-.078,3.709,3.709,0,0,1-.731-.223,3.872,3.872,0,0,1-.676-.36,3.773,3.773,0,0,1-1.077-1.077,3.772,3.772,0,0,1-.36-.676,3.708,3.708,0,0,1-.223-.731,3.764,3.764,0,0,1,0-1.523,3.8,3.8,0,0,1,.223-.734,3.852,3.852,0,0,1,.36-.673,3.773,3.773,0,0,1,1.077-1.077,3.772,3.772,0,0,1,.676-.36,3.925,3.925,0,0,1,.731-.223,3.876,3.876,0,0,1,1.523,0,3.925,3.925,0,0,1,.731.223,3.759,3.759,0,0,1,.674.36,3.753,3.753,0,0,1,1.079,1.077,3.956,3.956,0,0,1,.36.673,3.692,3.692,0,0,1,.221.734,3.693,3.693,0,0,1,0,1.523,3.92,3.92,0,0,1-.221.731,3.872,3.872,0,0,1-.36.676,3.753,3.753,0,0,1-1.079,1.077,3.858,3.858,0,0,1-.674.36,3.709,3.709,0,0,1-.731.223A3.884,3.884,0,0,1,249.906,401.82Zm0,0" transform="translate(-149.905 -239.794)" fill="#ff4343"/><path d="M249.906,268.268A3.906,3.906,0,0,1,246,264.361V199.906a3.906,3.906,0,1,1,7.813,0v64.455A3.907,3.907,0,0,1,249.906,268.268Zm0,0" transform="translate(-149.905 -119.132)" fill="#d12b06"/><path d="M382.772,221.747a3.759,3.759,0,0,1-.612-.049,3.906,3.906,0,0,1-2.918-2.18l-7.021-14.769-14.768-7.021a3.9,3.9,0,0,1-1.009-6.364l11.876-11.24,2.113-16.216a3.906,3.906,0,0,1,5.742-2.925l14.36,7.82,16.074-3a3.907,3.907,0,0,1,4.558,4.556l-3,16.074,7.822,14.36a3.907,3.907,0,0,1-2.927,5.742l-16.214,2.113-11.241,11.876a3.9,3.9,0,0,1-2.835,1.222ZM365.955,193.12l10.877,5.17a3.913,3.913,0,0,1,1.851,1.851l5.17,10.875,8.276-8.745a3.906,3.906,0,0,1,2.333-1.189l11.94-1.556-5.76-10.574a3.911,3.911,0,0,1-.409-2.585l2.209-11.838-11.836,2.211a3.912,3.912,0,0,1-2.585-.41l-10.576-5.759-1.555,11.94a3.9,3.9,0,0,1-1.189,2.332Zm0,0" transform="translate(-216.464 -97.504)" fill="#ff4343"/><path d="M267.545,360.414a4.077,4.077,0,0,1-.407-.02,3.908,3.908,0,0,1-3.484-4.288c2.56-24.768,14.485-43.584,24.039-55.007a107.139,107.139,0,0,1,20.482-19.168,3.906,3.906,0,1,1,4.329,6.5,98.531,98.531,0,0,0-18.819,17.676c-8.853,10.588-19.9,28-22.26,50.8a3.907,3.907,0,0,1-3.88,3.5Zm0,0" transform="translate(-160.651 -171.098)" fill="#d12b06"/><path d="M33.693,221.748a3.908,3.908,0,0,1-2.837-1.221l-11.24-11.876L3.4,206.538A3.907,3.907,0,0,1,.476,200.8l7.82-14.36-3-16.075A3.905,3.905,0,0,1,9.853,165.8l16.074,3,14.36-7.822a3.906,3.906,0,0,1,5.742,2.925l2.113,16.216,11.878,11.24a3.908,3.908,0,0,1-1.009,6.366l-14.769,7.021-7.019,14.768a3.909,3.909,0,0,1-2.917,2.18,3.773,3.773,0,0,1-.612.049Zm-23.63-22.222L22,201.083a3.9,3.9,0,0,1,2.332,1.189l8.278,8.745,5.17-10.875a3.906,3.906,0,0,1,1.851-1.851l10.875-5.17-8.745-8.278a3.9,3.9,0,0,1-1.189-2.332l-1.556-11.94-10.574,5.76a3.912,3.912,0,0,1-2.585.409l-11.838-2.209,2.209,11.836a3.891,3.891,0,0,1-.409,2.585Zm0,0" transform="translate(0 -97.505)" fill="#ff4343"/><path d="M165.5,360.413a3.906,3.906,0,0,1-3.88-3.5c-2.357-22.8-13.406-40.21-22.26-50.8a98.551,98.551,0,0,0-18.82-17.676,3.907,3.907,0,0,1,4.33-6.5A107.187,107.187,0,0,1,145.349,301.1c9.554,11.423,21.478,30.239,24.039,55.007a3.906,3.906,0,0,1-3.485,4.286,3.636,3.636,0,0,1-.406.021Zm0,0" transform="translate(-72.39 -171.096)" fill="#d12b06"/><path d="M328.468,423.076a3.906,3.906,0,0,1-3.548-5.536c5.963-13,15.9-21.025,23.19-25.467a60.561,60.561,0,0,1,14.687-6.639,3.906,3.906,0,1,1,2.013,7.549,54.111,54.111,0,0,0-12.634,5.762c-6.357,3.874-15.015,10.846-20.155,22.054a3.9,3.9,0,0,1-3.552,2.278Zm0,0" transform="translate(-197.779 -234.487)" fill="#d12b06"/><path d="M125.7,423.076a3.908,3.908,0,0,1-3.554-2.278c-5.139-11.208-13.8-18.179-20.155-22.054a54.079,54.079,0,0,0-12.634-5.762,3.906,3.906,0,0,1,2.014-7.549,60.618,60.618,0,0,1,14.687,6.639c7.288,4.442,17.227,12.465,23.19,25.467a3.907,3.907,0,0,1-3.548,5.536Zm0,0" transform="translate(-52.686 -234.487)" fill="#d12b06"/><path d="M459.75,337.728a3.907,3.907,0,0,1-3.906-3.906V330.57a3.906,3.906,0,0,1,7.813,0v3.252A3.906,3.906,0,0,1,459.75,337.728Zm0,0" transform="translate(-277.778 -198.755)" fill="#ff4343"/><path d="M459.75,382.879a3.908,3.908,0,0,1-3.906-3.906v-3.253a3.906,3.906,0,0,1,7.813,0v3.253A3.907,3.907,0,0,1,459.75,382.879Zm0,0" transform="translate(-277.778 -226.268)" fill="#ff4343"/><path d="M481.416,361.215h-3.252a3.906,3.906,0,0,1,0-7.813h3.252a3.906,3.906,0,1,1,0,7.813Zm0,0" transform="translate(-288.999 -215.049)" fill="#ff4343"/><path d="M436.268,361.215h-3.252a3.906,3.906,0,0,1,0-7.813h3.252a3.906,3.906,0,1,1,0,7.813Zm0,0" transform="translate(-261.487 -215.049)" fill="#ff4343"/><path d="M40.059,337.728a3.906,3.906,0,0,1-3.906-3.906V330.57a3.906,3.906,0,1,1,7.813,0v3.252A3.906,3.906,0,0,1,40.059,337.728Zm0,0" transform="translate(-22.03 -198.755)" fill="#ff4343"/><path d="M40.059,382.879a3.907,3.907,0,0,1-3.906-3.906v-3.253a3.906,3.906,0,1,1,7.813,0v3.253A3.907,3.907,0,0,1,40.059,382.879Zm0,0" transform="translate(-22.03 -226.268)" fill="#ff4343"/><path d="M61.724,361.215H58.473a3.906,3.906,0,1,1,0-7.813h3.252a3.906,3.906,0,1,1,0,7.813Zm0,0" transform="translate(-33.251 -215.049)" fill="#ff4343"/><path d="M16.574,361.215H13.32a3.906,3.906,0,0,1,0-7.813h3.253a3.906,3.906,0,0,1,0,7.813Zm0,0" transform="translate(-5.736 -215.049)" fill="#ff4343"/></g></svg>