<svg xmlns="http://www.w3.org/2000/svg" width="311" height="235.09" viewBox="0 0 311 235.09"><g transform="translate(0 0.003)"><rect width="66.515" height="50.127" transform="translate(65.648 138.028) rotate(33.995)" fill="#f2f2f2"/><path d="M197.958,588.736l-.571-.295c7.417-14.339,3.451-32.96-1.182-46.057A141.156,141.156,0,0,0,184.226,517.1l.543-.343A141.879,141.879,0,0,1,196.81,542.17C201.486,555.386,205.48,574.193,197.958,588.736Z" transform="translate(-162.326 -377.767)" fill="#2f2e41"/><rect width="23.194" height="0.642" transform="translate(36.962 161.924) rotate(-79.645)" fill="#2f2e41"/><rect width="0.643" height="31.603" transform="matrix(0.732, -0.681, 0.681, 0.732, 12.94, 158.985)" fill="#2f2e41"/><rect width="18.64" height="0.643" transform="matrix(0.586, -0.81, 0.81, 0.586, 41.194, 199.069)" fill="#2f2e41"/><ellipse cx="3.213" cy="3.213" rx="3.213" ry="3.213" transform="translate(39.845 126.634)" fill="#3f3d56"/><ellipse cx="3.213" cy="3.213" rx="3.213" ry="3.213" transform="translate(4.82 151.376)" fill="#3f3d56"/><ellipse cx="3.213" cy="3.213" rx="3.213" ry="3.213" transform="translate(18.958 154.59)" fill="#3f3d56"/><ellipse cx="3.213" cy="3.213" rx="3.213" ry="3.213" transform="translate(12.532 167.121)" fill="#3f3d56"/><ellipse cx="3.213" cy="3.213" rx="3.213" ry="3.213" transform="translate(52.698 175.155)" fill="#3f3d56"/><ellipse cx="3.213" cy="3.213" rx="3.213" ry="3.213" transform="translate(42.094 178.689)" fill="#3f3d56"/><ellipse cx="3.213" cy="3.213" rx="3.213" ry="3.213" transform="translate(49.485 188.972)" fill="#3f3d56"/><ellipse cx="3.213" cy="3.213" rx="3.213" ry="3.213" transform="translate(15.745 130.49)" fill="#3f3d56"/><path d="M280.592,747.964c6.816,7.307-.586,32.856-82.26,13.817-44.245-10.313-82.26-10.09-82.26-13.817s36.829.321,82.26.321S278.05,745.239,280.592,747.964Z" transform="translate(-116.071 -533.607)" fill="#3f3d56"/><path d="M280.592,747.964c6.816,7.307-.586,32.856-82.26,13.817-44.245-10.313-82.26-10.09-82.26-13.817s36.829.321,82.26.321S278.05,745.239,280.592,747.964Z" transform="translate(-116.071 -533.607)" opacity="0.1"/><path d="M280.592,737.043c6.816,7.307-.586,25.786-82.26,6.748-44.245-10.314-82.26-3.021-82.26-6.748s36.829-6.748,82.26-6.748S278.05,734.318,280.592,737.043Z" transform="translate(-116.071 -522.686)" fill="#3f3d56"/><path d="M227.032,159.1h3.7a8.873,8.873,0,0,1,8.873,8.873v12.569H218.159V167.973a8.873,8.873,0,0,1,8.873-8.873Z" transform="translate(-148.058 -107.979)" fill="#2f2e41"/><path d="M346.847,293.958s.9,7.192-1.124,7.641-2.922,3.146-2.922,3.146l6.742,4.27,6.967-1.348-.674-5.169s-1.8-5.169-.9-8.54S346.847,293.958,346.847,293.958Z" transform="translate(-269.946 -225.54)" fill="#a0616a"/><path d="M346.847,293.958s.9,7.192-1.124,7.641-2.922,3.146-2.922,3.146l6.742,4.27,6.967-1.348-.674-5.169s-1.8-5.169-.9-8.54S346.847,293.958,346.847,293.958Z" transform="translate(-269.946 -225.54)" opacity="0.1"/><path d="M327.414,553.761l1.8,11.687s-.449,11.912,2.7,22.475l3.146,10.563,3.146-3.6.9-14.384a42.214,42.214,0,0,0-.674-9.215l.674-18.879Z" transform="translate(-259.503 -401.963)" fill="#a0616a"/><path d="M379.171,546.849l1.573,20.452s-.674,21.8-.9,22.475,4.495,1.573,4.495,1.573,7.192-17.081,4.944-30.565c0,0-1.348-11.462.45-14.384S379.171,546.849,379.171,546.849Z" transform="translate(-294.629 -397.073)" fill="#a0616a"/><ellipse cx="7.866" cy="7.866" rx="7.866" ry="7.866" transform="translate(72.855 56.282)" fill="#a0616a"/><path d="M308.3,324.3s.9,3.371,5.169,3.146a8.1,8.1,0,0,0,6.293-4.045s5.169,2.7,7.641,2.472l-.674,11.013s-4.27,11.687-3.371,14.384,19.1,31.015,16.856,42.027c0,0,2.247,3.146-6.293,3.821s-8.316-.9-15.283,2.247-16.631,1.348-18.879.9-10.114-1.8-10.114-1.8,1.8-33.262,12.136-44.5l-.225-20.227-.9-7.641s7.252-3.6,7.446-2.7Z" transform="translate(-233.87 -246.438)" fill="#2f2e41"/><path d="M402.18,373.36s11.462,7.192,6.967,10.114S388.6,393.758,388.6,393.758s-12.27-5.79-9.124-8.037,8.54,4.045,8.54,4.045l13.934-8.316-3.6-4.045Z" transform="translate(-294.489 -280.445)" fill="#a0616a"/><path d="M305.45,392.245v32.813s-1.124,12.586,3.146,11.687.9-12.136.9-12.136l1.348-19.328V394.492Z" transform="translate(-244.506 -293.261)" fill="#a0616a"/><path d="M349.794,667.818s-2.023,4.27-6.293,1.8a37.032,37.032,0,0,1,1.124,4.72c0,.9,1.124,5.619,1.573,6.068s0,10.338,2.247,10.788,4.27-5.169,4.27-7.192-.674-8.54-.674-8.54.45-4.27-2.023-5.619Z" transform="translate(-270.421 -480.285)" fill="#2f2e41"/><path d="M370.69,681.306l-6.293-.9-1.348,5.394s-3.6,9.664-3.821,11.237-4.27,8.091-.674,8.091,7.192.225,7.866-1.8,2.023-8.99,3.146-11.462a5.662,5.662,0,0,0-.449-4.944Z" transform="translate(-279.63 -488.829)" fill="#2f2e41"/><path d="M400.854,332.293l2.023-.9s2.023,0,5.169,3.6,11.462,10.788,11.462,10.788-5.619,5.619-6.967,5.169-11.687-10.338-11.687-10.338Z" transform="translate(-309.345 -251.964)" fill="#2f2e41"/><path d="M308.853,332.094h-1.124s-4.72.449-5.394,6.293-1.8,12.811-2.247,13.485,5.843,3.6,6.967,3.6,2.922-17.53,2.922-17.53Z" transform="translate(-240.942 -252.439)" fill="#2f2e41"/><path d="M241.362,176.609H230.537l-2.451-5.633H243.2Z" transform="translate(-154.795 -116.039)" fill="#2f2e41"/><ellipse cx="0.545" cy="1.454" rx="0.545" ry="1.454" transform="translate(71.865 62.052) rotate(-16.16)" fill="#a0616a"/><ellipse cx="1.454" cy="0.545" rx="1.454" ry="0.545" transform="translate(87.515 64.989) rotate(-73.84)" fill="#a0616a"/><rect width="142.027" height="81.617" transform="translate(186.719 -0.003) rotate(28.948)" fill="#f2f2f2"/><rect width="47.235" height="62.017" transform="translate(144.238 58.339)" fill="#2e3131"/><rect width="21.208" height="21.208" transform="translate(157.252 68.14)" fill="#3f3d56"/><rect width="37.274" height="2.571" transform="translate(149.219 93.846)" fill="#3f3d56"/><rect width="37.274" height="2.571" transform="translate(149.219 100.915)" fill="#3f3d56"/><rect width="37.274" height="2.571" transform="translate(149.219 107.985)" fill="#3f3d56"/><rect width="47.235" height="62.017" transform="translate(244.493 112.644)" fill="#2e3131"/><rect width="33.418" height="3.856" transform="translate(251.402 120.838)" fill="#3f3d56"/><rect width="33.418" height="3.856" transform="translate(251.402 129.192)" fill="#3f3d56"/><rect width="33.418" height="3.856" transform="translate(251.402 137.547)" fill="#3f3d56"/><rect width="33.418" height="3.856" transform="translate(251.402 145.901)" fill="#3f3d56"/><rect width="33.418" height="3.856" transform="translate(251.402 154.256)" fill="#3f3d56"/><rect width="33.418" height="3.856" transform="translate(251.402 162.611)" fill="#3f3d56"/><rect width="47.235" height="62.017" transform="translate(230.676 8.212)" fill="#2e3131"/><rect width="33.418" height="3.856" transform="translate(237.585 28.937)" fill="#3f3d56"/><rect width="33.418" height="3.856" transform="translate(237.585 37.292)" fill="#3f3d56"/><rect width="33.418" height="3.856" transform="translate(237.585 45.647)" fill="#3f3d56"/><ellipse cx="5.704" cy="5.715" rx="5.704" ry="5.715" transform="translate(271.293 2.432)" fill="#fff"/><path d="M963.707,88.74a6.817,6.817,0,1,0,6.817,6.817A6.817,6.817,0,0,0,963.707,88.74Zm-1.4,10.452L958.813,95.7l.98-.98,2.517,2.517,5.313-5.313.98.98-6.3,6.289Z" transform="translate(-686.71 -87.281)" fill="#57b894"/><ellipse cx="5.704" cy="5.715" rx="5.704" ry="5.715" transform="translate(286.074 105.579)" fill="#fff"/><path d="M1009.712,409.74a6.817,6.817,0,1,0,6.817,6.817A6.817,6.817,0,0,0,1009.712,409.74Zm-1.4,10.452-3.494-3.494.98-.98,2.517,2.517,5.313-5.313.98.98-6.3,6.289Z" transform="translate(-717.932 -305.135)" fill="#57b894"/><ellipse cx="5.704" cy="5.715" rx="5.704" ry="5.715" transform="translate(185.819 51.917)" fill="#fff"/><path d="M697.707,242.74a6.817,6.817,0,1,0,6.817,6.817,6.817,6.817,0,0,0-6.817-6.817Zm-1.4,10.452-3.494-3.494.98-.98,2.517,2.517,5.313-5.313.98.98-6.3,6.289Z" transform="translate(-506.183 -191.797)" fill="#57b894"/></g></svg>