<svg xmlns="http://www.w3.org/2000/svg" width="520.816" height="391.446" viewBox="0 0 520.816 391.446"><g transform="translate(0.003 0)"><ellipse cx="12.479" cy="12.479" rx="12.479" ry="12.479" transform="translate(427.084 125.536)" fill="#2e3131" opacity="0.4"/><ellipse cx="17.79" cy="17.79" rx="17.79" ry="17.79" transform="translate(158.656 46.258)" fill="#2e3131" opacity="0.4"/><ellipse cx="12.479" cy="12.479" rx="12.479" ry="12.479" transform="translate(131.042 60.065)" fill="#2e3131" opacity="0.4"/><path d="M925.319,584.251c-9.861,10.8-10.219,26.521-10.219,26.521s15.629-1.777,25.49-12.573,10.219-26.521,10.219-26.521S935.179,573.455,925.319,584.251Z" transform="translate(-475.303 -306.682)" fill="#3f3d56"/><path d="M927,578.016c-2.984,14.313-15.526,23.806-15.526,23.806s-7.7-13.714-4.721-28.027,15.526-23.806,15.526-23.806S929.98,563.7,927,578.016Z" transform="translate(-471.411 -297.341)" fill="#2e3131"/><path d="M514.6,233.581V404.209L457.72,451.194H166.746V272.323l84.9-38.742Z" transform="translate(-71.817 -100.6)" fill="#3f3d56"/><path d="M514.6,233.581v.684l-20.418,13.667L457.72,272.323H166.746l84.9-38.742Z" transform="translate(-71.817 -100.6)" opacity="0.1"/><path d="M734.719,233.581V404.209l-56.876,46.985.412-179.283L714.3,247.932l20.088-14.351Z" transform="translate(-291.94 -100.6)" opacity="0.1"/><path d="M509.025,269.233H331.8l13.189-7.419H514.8Z" transform="translate(-142.905 -112.76)" fill="#2f2e41"/><path d="M1029.068,738.332s3.436,14.367.312,14.992-18.428.423-22.176,1.048-11.556-.423-11.556-3.234,8.121-4.685,8.121-4.685,11.556-6.247,11.869-6.559S1029.068,738.332,1029.068,738.332Z" transform="translate(-509.994 -378.458)" fill="#2f2e41"/><path d="M1036.179,588.476s-.937,10.619-.937,11.556.937,15.617,0,16.241.625,5,.625,6.559,5,27.485,3.748,37.48,1.874,9.058.937,9.995-.937.937-.937,2.811-9.995,3.436-9.995,3.436l-10.93-69.026,5.622-20.614Z" transform="translate(-519.918 -313.244)" fill="#575a89"/><path d="M1036.179,588.476s-.937,10.619-.937,11.556.937,15.617,0,16.241.625,5,.625,6.559,5,27.485,3.748,37.48,1.874,9.058.937,9.995-.937.937-.937,2.811-9.995,3.436-9.995,3.436l-10.93-69.026,5.622-20.614Z" transform="translate(-519.918 -313.244)" opacity="0.1"/><path d="M1021.152,744.805s3.123,11.244,0,11.869-18.428-.716-22.176-.091-11.556.716-11.556-2.1,8.121-4.685,8.121-4.685,11.556-6.247,11.869-6.559S1021.152,744.805,1021.152,744.805Z" transform="translate(-506.45 -380.558)" fill="#2f2e41"/><path d="M1030.967,567.713s3.748,9.058-.625,13.743-9.37,14.055-9.37,14.68,8.745,62.779,7.5,66.84-.937,6.559-.625,7.184-3.123,4.06-6.871,4.06-9.37-2.811-9.995-5.31.937-24.05.625-28.11a47.067,47.067,0,0,0-2.5-11.244c-.625-1.249-4.06-2.5-4.685-6.247s-5.622-51.535-4.06-53.1S1030.967,567.713,1030.967,567.713Z" transform="translate(-511.893 -304.975)" fill="#575a89"/><ellipse cx="10.619" cy="10.619" rx="10.619" ry="10.619" transform="translate(484.718 169.662)" fill="#ffb9b9"/><path d="M1013.307,431.107s-2.186,11.556-.625,12.806-11.869,3.123-11.869,3.123-1.562-15.3-1.874-16.866S1013.307,431.107,1013.307,431.107Z" transform="translate(-511.41 -245.515)" fill="#ffb9b9"/><path d="M994.443,452.206s3.748-10.932,19.052-7.808c0,0,2.811.937,1.874,1.874s-1.874.937-.625,1.874,2.811,0,1.874.937,8.433,6.559,7.808,17.178,2.186,25.611,0,28.11,1.562,13.43.937,15.617,3.748,5,1.874,5.934-35.606,6.559-36.543,0-.312-1.874-1.249-3.436-1.249-4.373-.625-7.808,2.186-11.869,1.562-14.992,0-29.359,1.874-32.483A16.209,16.209,0,0,0,994.443,452.206Z" transform="translate(-506.914 -251.623)" fill="#2e3131"/><path d="M1005.26,591.927s4.685,17.8-1.249,17.8-5.622-18.428-5.622-18.428Z" transform="translate(-511.173 -315.134)" fill="#ffb9b9"/><path d="M1004.43,411.743c0,.906,1.312,1.48,3.345,1.612h0a17.021,17.021,0,0,0,2.586-.05c1.3-.119,1.837,1.1,2.058,2.714.362,2.658-.144,6.384.44,6.968.806.806,6.681,0,8.517-1.83a1.7,1.7,0,0,0,.54-.981,5.22,5.22,0,0,1,1.568-2.914c1.084-1.184,2.627-2.5,4.366-4.582,3.123-3.748,0-4.06-.937-6.871s-2.5-3.748-2.5-5.622-7.184-3.436-13.118-3.123-4.685,7.808-4.685,7.808-.353.906-.775,2.074a32.565,32.565,0,0,0-1.387,4.5,2.274,2.274,0,0,0-.025.294Z" transform="translate(-513.776 -231.461)" fill="#2f2e41"/><path d="M1003.19,466.764s10.619-.625,11.556,14.992.625,30.3.625,30.609-4.373,29.984-8.433,29.984-7.184-.625-8.121-2.186,2.5-24.05,2.5-24.05,1.562-23.737-.937-31.234S997.569,467.7,1003.19,466.764Z" transform="translate(-511.289 -261.496)" opacity="0.1"/><path d="M1000.45,464.021s10.619-.625,11.556,14.992.625,30.3.625,30.609-4.373,29.984-8.433,29.984-7.184-.625-8.121-2.186,2.5-24.05,2.5-24.05,1.562-23.737-.937-31.233S994.828,464.958,1000.45,464.021Z" transform="translate(-510.109 -260.315)" fill="#2e3131"/><path d="M687.953,188.442s-4.628-13.113-7.97-9,5.142,11.056,5.142,11.056Z" transform="translate(-373.705 -137.408)" fill="#a0616a"/><path d="M712.926,173.273l-2.784,1.032s-1.33,5.91-.816,6.939.771.257,0,2.314-3.085,7.456-3.342,8.228-14.912-4.885-14.912-7.713c0,0-3.085,3.6-4.628,4.371,0,0,16.969,12.341,19.283,13.884s3.6.771,5.656-1.028,10.8-16.712,10.8-16.712Z" transform="translate(-376.824 -135.095)" fill="#575a89"/><path d="M699.825,332.347s.257,2.828.771,3.085,4.371,6.685,0,7.97-6.942.771-7.97,1.286-19.026,1.543-19.283-1.286,8.742-3.342,8.742-3.342,8.228-5.4,9.513-8.228S699.825,332.347,699.825,332.347Z" transform="translate(-371.179 -202.895)" fill="#2f2e41"/><path d="M798.142,342.628s6.171,10.542,4.628,11.827S786.2,360.425,784,360.626c-2.828.257-4.885-2.057-2.571-3.342s7.2-6.685,7.2-8.485v-4.628Z" transform="translate(-417.302 -208.034)" fill="#2f2e41"/><path d="M770.579,221.6s5.4,6.685-3.085,17.483l-14.141,18s8.742,13.884,9,21.083,2.057,5.656,2.571,8.742,2.828,1.543,1.028,3.857-8.485,4.371-10.542,2.571a6.374,6.374,0,0,1-2.057-5.142c0-1.028-3.6-6.942-3.857-8.742s-9.77-16.455-9.77-16.455-3.085-8.742.514-13.627a51.646,51.646,0,0,0,5.978-11.814s-10.606,12.842-18.062,15.927c0,0-2.828.514-2.314,1.8s0,2.057-.771,3.342-6.171,16.2-7.97,20.055-1.028,6.171-3.085,7.456-11.313.257-11.313-1.028,1.286-4.628,2.057-6.428,6.942-22.626,6.428-26.225.257-8.485,4.114-10.542,23.4-18.769,24.425-18.769S770.579,221.6,770.579,221.6Z" transform="translate(-383.826 -155.907)" fill="#2f2e41"/><ellipse cx="10.799" cy="10.799" rx="10.799" ry="10.799" transform="translate(324.275 3.726)" fill="#a0616a"/><path d="M738.568,133.531s3.342,5.914,7.456,6.685-10.8,12.6-10.8,12.6-3.6-11.313-6.685-11.827S738.568,133.531,738.568,133.531Z" transform="translate(-394.752 -117.978)" fill="#a0616a"/><path d="M727.992,161.695c0,3.342,10.027,12.856,10.027,12.856l9.513,7.97s.257,2.828,1.286,3.085,2.314.257,1.286,1.8-3.6,4.885-1.286,5.4a18.9,18.9,0,0,0,2.106.2c.617.036,1.342.069,2.157.1,1.9.067,4.283.111,6.862.093q1.1,0,2.237-.026c9.721-.193,20.983-1.311,20.062-5-1.543-6.171-.514-8.227-3.857-11.57s-8.742-14.912-8.742-14.912-10.8-18.255-19.8-18.255l-1.869-.491a4.28,4.28,0,0,0-4.672,1.795c-1.8,2.749-4.651,6.878-6.315,8.21-2.571,2.057-2.972.581-2.972.581S727.992,158.352,727.992,161.695Z" transform="translate(-394.718 -121.973)" fill="#575a89"/><path d="M764.9,244.628s-7.456,11.57-2.828,13.627,7.2-12.084,7.2-12.084Z" transform="translate(-408.744 -165.826)" fill="#a0616a"/><path d="M729.443,119.517c-.414-.052-.545-.575-.615-.987a5.548,5.548,0,0,0-4.226-4.653,5.983,5.983,0,0,0-2.518.2,9.552,9.552,0,0,0-3.23,1.59,5.33,5.33,0,0,1-1.614,1.014c-.405.119-2.126.884-2.528,1.013-.884.285-1.615,1.21-2.525,1.026-.871-.175-1.2-1.227-1.342-2.1-.319-2,.825-4.98,1.962-6.654a7.058,7.058,0,0,1,3.784-2.477,27.185,27.185,0,0,1,5.248-1.043,16.969,16.969,0,0,1,7.192.308,6.866,6.866,0,0,1,4.828,4.939c.089.5.106,1,.216,1.5a22.229,22.229,0,0,0,1.524,3.346,6.444,6.444,0,0,1-.2,5.224c-.641,1.289-1.756,2.528-1.515,3.948l-1.984-1.564a1.441,1.441,0,0,1-.662-1.687l.288-2.484a2.186,2.186,0,0,0-.129-1.343C730.518,117.087,730.135,119.6,729.443,119.517Z" transform="translate(-387.31 -106.213)" fill="#2f2e41"/><path d="M770,186.042l-2.422,10.071c2.443.087,5.674.134,9.1.067.864-2.592,1.689-5.294,2.322-7.824,2.314-9.256-1.543-23.4-3.6-30.082s-7.2-8.485-7.2-8.485a23.446,23.446,0,0,0-5.914,3.085C758.948,155.189,770,186.042,770,186.042Z" transform="translate(-409.219 -124.981)" opacity="0.1"/><path d="M769.9,189.429l-2.522,10.485c.617.036,1.342.069,2.157.1,1.9.067,4.283.111,6.862.093.928-2.754,1.826-5.659,2.5-8.364,2.314-9.256-1.543-23.4-3.6-30.082s-6.556.643-6.556.643,1.8-4.371-1.543-2.057S769.9,189.429,769.9,189.429Z" transform="translate(-411.169 -128.882)" opacity="0.1"/><path d="M766.4,148.886s5.142,1.8,7.2,8.485,5.913,20.826,3.6,30.082a173.347,173.347,0,0,1-7.2,20.826s-4.885-3.6-6.685-2.828l4.885-20.312s-11.056-30.853-7.713-33.168a23.448,23.448,0,0,1,5.913-3.085Z" transform="translate(-408.441 -124.592)" fill="#575a89"/><path d="M491.7,157.061,420.561,8.828,301.62,65.906l43.744,91.155Z" transform="translate(-129.906 -3.802)" fill="#f2f2f2"/><rect width="70.072" height="4.349" transform="matrix(0.902, -0.433, 0.433, 0.902, 203.411, 93.528)" fill="#3f3d56"/><rect width="70.072" height="4.349" transform="matrix(0.902, -0.433, 0.433, 0.902, 220.137, 128.383)" fill="#3f3d56"/><rect width="17.397" height="17.397" transform="matrix(0.902, -0.433, 0.433, 0.902, 279.117, 50.231)" fill="#3f3d56"/><rect width="17.397" height="17.397" transform="matrix(0.902, -0.433, 0.433, 0.902, 295.842, 85.085)" fill="#3f3d56"/><path d="M507.343,55.924,500.883,74.3l-8.708-3.061-1.192,3.39L503.07,78.88l7.662-21.764Z" transform="translate(-211.462 -24.086)" fill="#57b894"/><path d="M536.722,117.146l-6.459,18.379-8.707-3.06-1.192,3.39L532.45,140.1l7.662-21.764Z" transform="translate(-224.116 -50.453)" fill="#57b894"/><g transform="translate(-0.003 169.494)"><rect width="32.863" height="32.863" transform="translate(39.003 147.506) rotate(167.942)" fill="#f2f2f2"/><path d="M202.969,591.492s-11.8,8.432-7.869,11.8,11.8-10.118,11.8-10.118Z" transform="translate(-164.858 -484.71)" fill="#ffb9b9"/><path d="M291.337,613.545s-2.248,28.105-2.811,32.04-1.124,39.348-2.248,43.282-2.248,13.491-2.248,13.491h-6.745s.562-17.425-1.124-24.171-1.124-25.295-1.124-25.295-3.373-33.164-1.686-37.661S291.337,613.545,291.337,613.545Z" transform="translate(-198.703 -493.835)" fill="#ffb9b9"/><path d="M283.977,767.239s2.811,1.686,2.811,2.811-.562,3.935,0,5.059,4.5,5.621,2.248,6.745-12.366,0-12.366,0,.562-7.87,1.124-8.432-.562-6.183-.562-6.183Z" transform="translate(-200.335 -560.402)" fill="#2f2e41"/><path d="M227.573,612.908s-.714,28.186-.568,32.158-3.012,39.248-2.307,43.279.82,13.652.82,13.652l6.708.708s1.27-17.388,3.655-23.919,3.773-25.037,3.773-25.037,6.835-32.627,5.63-37.276S227.573,612.908,227.573,612.908Z" transform="translate(-177.908 -493.887)" fill="#ffb9b9"/><path d="M224.072,766.842s-2.972,1.382-3.09,2.5.146,3.972-.531,5.031-5.062,5.118-2.944,6.472,12.3,1.3,12.3,1.3.267-7.885-.233-8.5,1.208-6.09,1.208-6.09Z" transform="translate(-174.608 -560.231)" fill="#2f2e41"/><path d="M262.98,540.15s4.5.562,6.183,10.118,7.869,33.727,2.811,35.413-20.236,5.059-20.8,3.935-1.686-3.935-1.686-3.935,1.686,5.059-.562,5.059-24.171-3.373-23.608-5.059,1.686-14.053,1.686-14.053,3.373-20.8,6.745-24.171a9.218,9.218,0,0,0,2.811-7.307Z" transform="translate(-178.215 -462.598)" fill="#2f2e41"/><path d="M299.761,531.792s-7.307-1.686-8.432.562,2.811,5.621,4.5,5.621,4.5-1.686,4.5-1.686Z" transform="translate(-206.564 -458.737)" fill="#ffb9b9"/><ellipse cx="10.118" cy="10.118" rx="10.118" ry="10.118" transform="translate(67.903 5.04)" fill="#ffb9b9"/><path d="M262.636,439.414s-1.686,7.87-.562,7.87-8.432,5.059-8.432,5.059l-7.307-1.124-2.248-3.373s11.8-7.869,11.8-12.366S262.636,439.414,262.636,439.414Z" transform="translate(-186.302 -416.949)" fill="#ffb9b9"/><path d="M248.647,456.363a8.24,8.24,0,0,1,2.248-1.124h4.5c.562,0,7.87,1.686,7.87,1.686l4.5,25.295s-7.87,12.929-2.248,23.046c0,0-1.686-1.124-9.556-.562s-21.922,2.248-22.484,2.248-.562-4.5,0-5.621-.562-.562-.562-3.373-1.686-7.87-1.686-7.87l-7.869-28.668s10.118-5.621,11.8-5.059,6.745,2.248,7.869,1.686A52.008,52.008,0,0,1,248.647,456.363Z" transform="translate(-177.372 -426.028)" fill="#2e3131"/><path d="M290.492,458.736l1.686-.562s3.373-.562,7.307,2.811,18.55,13.49,18.55,13.49,5.621,4.5,3.935,9.556-4.5,17.425-12.928,16.863c0,0-5.059,6.745-7.869,5.621s-5.059-5.621-3.373-6.183,6.183-6.183,6.183-6.183l-5.621-10.68h-1.686l-6.183-3.373Z" transform="translate(-206.289 -427.277)" fill="#2e3131"/><path d="M220.508,465.112l-4.5.562s-3.935,1.686-3.373,8.994-3.373,40.472-1.686,44.407c0,0-5.621,19.112-4.5,19.674s7.869,3.935,7.307,1.686,6.183-17.987,6.183-17.987,7.869-8.432,4.5-20.236v-9.556Z" transform="translate(-170.031 -430.28)" fill="#2e3131"/><path d="M272.646,428.87l-7.146,1.557-.918-3.519.353,3.642-11.528,2.511-.507-1.942.195,2.01-7.383,1.609-1.579-15.162c-1.624-6.222,4.3-12.853,10.524-14.477l2.76-.72c4.57-1.193,12.876-.108,14.069,4.461C269.4,416.807,265.839,425.541,272.646,428.87Z" transform="translate(-186.205 -403.93)" fill="#2f2e41"/></g></g></svg>