<svg xmlns="http://www.w3.org/2000/svg" width="308.401" height="332.377" viewBox="0 0 308.401 332.377"><path d="M164.5,194.472,391.87,0l-.027,331.861Z" transform="translate(-84.92)" fill="#f2f2f2"/><ellipse cx="3.162" cy="3.162" rx="3.162" ry="3.162" transform="translate(50.356 276.008)" fill="#ff6584"/><line y1="35.998" transform="translate(69.007 295.647)" fill="#3f3d56" stroke="#3f3d56" stroke-miterlimit="10" stroke-width="2"/><ellipse cx="5.091" cy="5.091" rx="5.091" ry="5.091" transform="translate(63.916 290.556)" fill="#3f3d56"/><path d="M407.21,748.708s-.727-15.641-15.635-13.823" transform="translate(-338.203 -430.875)" fill="#3f3d56"/><rect width="119.007" height="157.706" transform="translate(0 27.277)" fill="#3f3d56"/><rect width="119.007" height="157.706" transform="translate(0 27.277)" opacity="0.1"/><rect width="82.24" height="2.903" transform="translate(18.383 57.271)" fill="#2e3131" opacity="0.3"/><rect width="82.24" height="2.903" transform="translate(18.383 70.816)" fill="#2e3131" opacity="0.3"/><rect width="82.24" height="2.903" transform="translate(18.383 84.361)" fill="#2e3131" opacity="0.3"/><rect width="82.24" height="2.903" transform="translate(18.383 97.907)" fill="#2e3131" opacity="0.3"/><rect width="82.24" height="2.903" transform="translate(18.383 111.452)" fill="#2e3131" opacity="0.3"/><rect width="82.24" height="2.903" transform="translate(18.383 124.997)" fill="#2e3131" opacity="0.3"/><rect width="82.24" height="2.903" transform="translate(18.383 138.543)" fill="#2e3131" opacity="0.3"/><rect width="82.24" height="2.903" transform="translate(18.383 152.088)" fill="#2e3131" opacity="0.3"/><rect width="119.007" height="157.706" transform="translate(26.365 45.957)" fill="#3f3d56"/><rect width="82.24" height="2.903" transform="translate(44.748 75.951)" fill="#2e3131"/><rect width="82.24" height="2.903" transform="translate(44.748 89.496)" fill="#2e3131"/><rect width="82.24" height="2.903" transform="translate(44.748 103.041)" fill="#2e3131"/><rect width="82.24" height="2.903" transform="translate(44.748 116.587)" fill="#2e3131"/><rect width="82.24" height="2.903" transform="translate(44.748 130.132)" fill="#2e3131"/><rect width="82.24" height="2.903" transform="translate(44.748 143.677)" fill="#2e3131"/><rect width="82.24" height="2.903" transform="translate(44.748 157.223)" fill="#2e3131"/><rect width="82.24" height="2.903" transform="translate(44.748 170.768)" fill="#2e3131"/><path d="M561.613,162.7Q549.867,145.96,528.9,142.908" transform="translate(-409.095 -125.35)" fill="none" stroke="#3f3d56" stroke-miterlimit="10" stroke-width="2"/><path d="M311.108,66.95l-.962-.116-.567,4.737-4.683-.912-.184.951,5.7,1.11Z" transform="translate(-157.302 -34.502)" fill="#3f3d56"/><path d="M250.333,29.331l.538.8L246.9,32.783l2.931,3.765-.765.594L245.5,32.556Z" transform="translate(-126.735 -15.142)" fill="#3f3d56"/><line x2="272.36" transform="translate(36.041 331.377)" fill="none" stroke="#3f3d56" stroke-miterlimit="10" stroke-width="2"/><path d="M802.552,238.744l1.257-7.761,1.3,7.84,3.78.117a50.333,50.333,0,0,1-.256-27.374c1.8-6.442.163-13.573-4.5-17.621a13.22,13.22,0,0,0-8.292-3.325l-10.585-.328c-6.243-.193-11.706,4.172-13.961,10.47a18.754,18.754,0,0,0-.919,7.778,121.377,121.377,0,0,1-1.136,29.171Z" transform="translate(-533.165 -149.809)" fill="#2f2e41"/><path d="M774.751,243.836s6.52,16.572-11.953,18.745S778.826,283.5,778.826,283.5L802.461,271s-19.017-13.583-13.04-25.808Z" transform="translate(-527.033 -177.453)" fill="#9f616a"/><path d="M774.751,243.836s6.52,16.572-11.953,18.745S778.826,283.5,778.826,283.5L802.461,271s-19.017-13.583-13.04-25.808Z" transform="translate(-527.033 -177.453)" opacity="0.1"/><path d="M418.66,616.8l-5.433,16.028h13.855l2.445-12.5Z" transform="translate(-213.322 -318.415)" fill="#9f616a"/><path d="M532.279,613.9v11.953H540.7l1.087-14.67Z" transform="translate(-274.78 -315.516)" fill="#9f616a"/><path d="M672.454,741.412s-7.063-4.89-7.607-2.445-5.7,16.572-13.855,17.658-16.572,5.7-7.063,7.335,23.907-.543,26.08-2.173,2.445.543,2.445.543,11.138-.815,11.138-1.358-.543-4.347,0-5.433-1.087-6.792-1.087-6.792l1.087-9.78s-4.89.815-4.89,1.358S672.454,741.412,672.454,741.412Z" transform="translate(-466.3 -432.705)" fill="#2f2e41"/><path d="M811.365,737.24s-4.89-1.63-4.89,0-4.347,24.574-2.445,25.661,13.312,2.32,14.942-1.211-1.087-11.138-1.087-11.138-1.63-6.52,0-7.335S820.33,736.153,811.365,737.24Z" transform="translate(-550.878 -431.793)" fill="#2f2e41"/><path d="M723.51,441.694,710.2,527.812s-18.473,50.8-9.78,52.974,8.693,5.977,13.855,2.988,13.855-52.431,13.855-52.431l19.56-56.234,5.705,57.593s-5.705,48.084-1.087,48.084,15.757,1.63,16.843-.815,5.162-56.778,5.162-56.778,10.792-74.1-1.8-79.835S723.51,441.694,723.51,441.694Z" transform="translate(-496.438 -278.871)" fill="#2f2e41"/><ellipse cx="14.942" cy="14.942" rx="14.942" ry="14.942" transform="translate(241.47 45.465)" fill="#9f616a"/><path d="M754.086,285.984a12.1,12.1,0,0,1,2.087,1.327,21.546,21.546,0,0,0,15.684,4.938,48.824,48.824,0,0,0,16.259-4.383s11.179,3.025,12.537,7.371-9.78,26.895-9.78,26.895-4.075,8.693-1.087,14.4,5.977,20.646,7.607,23.635,3.26,13.04-1.358,9.237-14.127-13.04-29.068-9.237-31.242,5.433-30.155,4.075,4.075-38.848,4.075-38.848L734.91,289.26s6.229-10.846,18.735-8C753.645,281.256,751.909,284.845,754.086,285.984Z" transform="translate(-515.445 -196.526)" fill="#2e3131"/><path d="M729.294,437.412l8.965,12.768s7.335-.543,7.063-3.8c0,0,3.8,2.988,4.89,1.358s-4.618-8.15-6.52-8.965-5.705-1.63-6.52-2.445-3.532-3.8-3.532-3.8Z" transform="translate(-512.545 -274.86)" fill="#9f616a"/><path d="M827.634,430.179s-7.837,2.993-10.574,6.387-6.541,6.382-4.639,6.382,6.248-1.9,6.248-1.9,4.618,8.965,10.867,3.532l4.347-6.52S832.795,429.092,827.634,430.179Z" transform="translate(-555.193 -273.603)" fill="#9f616a"/><path d="M727.361,297.185h-3.8s-13.583,30.7-10.052,46.183,6.52,25.536,7.878,26.08,2.717-5.656,5.977-4.73c0,0-2.717-17.819-1.358-18.905s1.087-3.26,1.358-5.977,3.8-10.867,3.8-10.867Z" transform="translate(-504.092 -204.994)" fill="#2e3131"/><path d="M849.775,308.978l6.248.815s3.26,9.508,3.532,16.572.815,9.78,1.63,12.225-2.445,11.41-1.9,14.942-11.138,25.536-11.138,24.45-3.532-10.595-5.977-9.508c0,0,1.9-5.433,4.075-6.792s0-11.953,0-11.953l-1.9-17.387Z" transform="translate(-570.815 -211.082)" fill="#2e3131"/><rect width="27.575" height="12.578" transform="translate(243.576 44.506)" fill="#2f2e41"/><ellipse cx="0.968" cy="2.419" rx="0.968" ry="2.419" transform="translate(240.112 60.779) rotate(-14.174)" fill="#9f616a"/><ellipse cx="8.224" cy="8.224" rx="8.224" ry="8.224" transform="translate(280.826 6.773)" fill="none" stroke="#3f3d56" stroke-miterlimit="10" stroke-width="2"/></svg>