<svg xmlns="http://www.w3.org/2000/svg" xmlns:xlink="http://www.w3.org/1999/xlink" width="311" height="304.662" viewBox="0 0 311 304.662"><defs><linearGradient id="a" x1="146.592" y1="1" x2="146.592" gradientUnits="objectBoundingBox"><stop offset="0" stop-color="gray" stop-opacity="0.251"/><stop offset="0.535" stop-color="gray" stop-opacity="0.122"/><stop offset="1" stop-color="gray" stop-opacity="0.102"/></linearGradient></defs><path d="M473.186,71.5v22l-20.348-8.931-8.258-3.626-6.425-2.82-33.034-14.5-6.425-2.82-8.258-3.626L271.6,5h50.106Z" transform="translate(-162.186 -2.986)" fill="#f2f2f2"/><ellipse cx="26.588" cy="26.588" rx="26.588" ry="26.588" transform="translate(240.501)" fill="#2e3131"/><path d="M904.834,431.535a4.834,4.834,0,1,1,4.834-4.834A4.834,4.834,0,0,1,904.834,431.535Zm0-8.863a4.029,4.029,0,1,0,4.029,4.029,4.029,4.029,0,0,0-4.029-4.029Z" transform="translate(-623.645 -280.87)" fill="#3f3d56"/><path d="M224.474,265.341H214V254.867h10.474Zm-9.668-.806h8.863v-8.863h-8.863Z" transform="translate(-214 -181.145)" fill="#3f3d56"/><path d="M611.474,86.341H601V75.867h10.474Zm-9.668-.806h8.863V76.673h-8.863Z" transform="translate(-445.097 -74.256)" fill="#3f3d56"/><rect width="74.93" height="60.83" transform="translate(47.738 65.511)" fill="#2e3131"/><rect width="207.468" height="6.446" transform="translate(47.738 144.873)" fill="#f2f2f2"/><path d="M394.236,286.123H318.5V224.487h75.736Zm-74.93-.806H393.43V225.293H319.306Z" transform="translate(-276.402 -163.004)" fill="#3f3d56"/><rect width="72.513" height="6.446" transform="translate(152.479 82.23)" fill="#2e3131"/><rect width="102.727" height="6.446" transform="translate(152.479 99.552)" fill="#2e3131" opacity="0.3"/><path d="M651.819,273.238H578.5v-7.251h73.319Zm-72.513-.806h71.707v-5.64H579.306Z" transform="translate(-431.661 -187.786)" fill="#3f3d56"/><path d="M682.032,316.238H578.5v-7.251H682.032Zm-102.727-.806H681.227v-5.64H579.306Z" transform="translate(-431.661 -213.463)" fill="#3f3d56"/><path d="M526.773,428.738H318.5v-7.251H526.773Zm-207.468-.806H525.968v-5.64H319.306Z" transform="translate(-276.402 -280.643)" fill="#3f3d56"/><rect width="207.468" height="6.446" transform="translate(47.738 165.015)" fill="#f2f2f2"/><path d="M526.773,478.738H318.5v-7.251H526.773Zm-207.468-.806H525.968v-5.64H319.306Z" transform="translate(-276.402 -310.5)" fill="#3f3d56"/><rect width="207.468" height="6.446" transform="translate(47.738 185.158)" fill="#f2f2f2"/><path d="M526.773,528.738H318.5v-7.251H526.773Zm-207.468-.806H525.968v-5.64H319.306Z" transform="translate(-276.402 -340.358)" fill="#3f3d56"/><rect width="207.468" height="6.446" transform="translate(47.738 205.3)" fill="#f2f2f2"/><path d="M526.773,578.738H318.5v-7.251H526.773Zm-207.468-.806H525.968v-5.64H319.306Z" transform="translate(-276.402 -370.215)" fill="#3f3d56"/><rect width="207.468" height="6.446" transform="translate(47.738 225.443)" fill="#f2f2f2"/><path d="M526.773,628.738H318.5v-7.251H526.773Zm-207.468-.806H525.968v-5.64H319.306Z" transform="translate(-276.402 -400.073)" fill="#3f3d56"/><rect width="207.468" height="6.446" transform="translate(47.738 245.585)" fill="#f2f2f2"/><path d="M526.773,678.738H318.5v-7.251H526.773Zm-207.468-.806H525.968v-5.64H319.306Z" transform="translate(-276.402 -429.93)" fill="#3f3d56"/><path d="M526.48,398.143H289V136.487H526.48Zm-236.674-.806H525.674V137.293H289.806Z" transform="translate(-258.786 -110.455)" fill="#3f3d56"/><path d="M276.34,792.792a.184.184,0,0,0-.04.02c.479-1.035.927-2.083,1.333-3.146.048-.125.093-.254.141-.379,0,.032,0,.064-.008.1-.012.2-.028.4-.044.608-.024.318-.044.64-.048.963,0,.1,0,.2,0,.3a5.892,5.892,0,0,0,.121,1.168h-.016c-.1.008-.193.012-.29.028a3.942,3.942,0,0,0-1.1.314.237.237,0,0,0-.044.024Z" transform="translate(-251.202 -500.274)" fill="url(#a)"/><path d="M274.519,389.8c.043,1.682.613,3.312.7,4.991-4.954.246-9.841-2.157-14.745-1.42a6.8,6.8,0,0,0,2.536-4.061,16.84,16.84,0,0,0,.484-6.239,2.745,2.745,0,0,0-.062-.345,9,9,0,0,1-.527-2.634c.166-.856.974-.687,1.7-.638a63.711,63.711,0,0,1,6.612.853c.57.1,6.122,1.485,6.2,1.34a26.128,26.128,0,0,0-2.4,4.951,9.652,9.652,0,0,0-.5,3.2Z" transform="translate(-241.753 -255.516)" fill="#a0616a"/><path d="M402.13,376.847a7.243,7.243,0,0,1-1.513,1.525c-.376.308-.761.622-1.165.906a4.994,4.994,0,0,1-2.477,1.007c-1.18.08-3.685-.613-4.418-1.624a2.929,2.929,0,0,1-.422-1.691,7.781,7.781,0,0,1,.407-2.366,13.187,13.187,0,0,1,1.91-3.457,10.176,10.176,0,0,1,3.072-3.072,11.911,11.911,0,0,1,1.306-.6c.77-.314,1.537-.632,2.308-.946a1.114,1.114,0,0,1,.419-.111c.619.006.733.952.382,1.463-.7,1.029-2.283,1.316-2.727,2.483a1.77,1.77,0,0,1,1.645,1.276.9.9,0,0,0,.222.514c.2.163.521.071.752.194.41.219.231.829.274,1.291a6.039,6.039,0,0,0,.422,1.161,2.468,2.468,0,0,1-.4,2.046Z" transform="translate(-320.37 -247.758)" fill="#a0616a"/><path d="M247.432,799.372a1.757,1.757,0,0,1,1.537-.232,57.029,57.029,0,0,0,8.641.7c.362-1.769-.689-3.489-1.028-5.263a4.747,4.747,0,0,0-.342-1.331,3.05,3.05,0,0,0-2.19-1.322c-1.557-.329-3.992-.908-4.861.666C248.145,794.479,247.811,797.27,247.432,799.372Z" transform="translate(-233.964 -501.621)" fill="#65617d"/><path d="M298.36,781.87a9.121,9.121,0,0,1-4.042,1.232,12.937,12.937,0,0,0-4.144.946,27.351,27.351,0,0,1-3.2,1.83,6.67,6.67,0,0,1-3.324.052,4.926,4.926,0,0,1-3.42-1.858,5.7,5.7,0,0,1-.478-3.472q.152-2.01.3-4.027a1.917,1.917,0,0,1,.25-.974c.949-1.383,3.257.579,4.492.576a8.685,8.685,0,0,0,5.469-2.36,1.66,1.66,0,0,1,.425-.32c.558-.25,1.115.213,1.611.616.055.046.111.092.166.136,1.143.906,2.677,1.091,4.088,1.457s2.927,1.106,3.364,2.5a2.132,2.132,0,0,1,.068.268A3.528,3.528,0,0,1,298.36,781.87Z" transform="translate(-253.231 -490.802)" fill="#3f3d56"/><path d="M298.36,781.87a9.121,9.121,0,0,1-4.042,1.232,12.937,12.937,0,0,0-4.144.946,27.351,27.351,0,0,1-3.2,1.83,6.67,6.67,0,0,1-3.324.052,4.926,4.926,0,0,1-3.42-1.858,5.7,5.7,0,0,1-.478-3.472q.152-2.01.3-4.027a1.917,1.917,0,0,1,.25-.974c.949-1.383,3.257.579,4.492.576a8.685,8.685,0,0,0,5.469-2.36,1.66,1.66,0,0,1,.425-.32c.558-.25,1.115.213,1.611.616.055.046.111.092.166.136,1.143.906,2.677,1.091,4.088,1.457s2.927,1.106,3.364,2.5a2.132,2.132,0,0,1,.068.268A3.528,3.528,0,0,1,298.36,781.87Z" transform="translate(-253.231 -490.802)" fill="#2f2e41"/><path d="M298.36,782.32a9.121,9.121,0,0,1-4.042,1.232,12.936,12.936,0,0,0-4.144.946,27.359,27.359,0,0,1-3.2,1.83,6.669,6.669,0,0,1-3.324.052,5.488,5.488,0,0,1-3.42-2.309,5.7,5.7,0,0,1-.478-3.472q.152-2.01.3-4.027a1.917,1.917,0,0,1,.25-.974c.949-1.383,3.257.579,4.492.576a8.685,8.685,0,0,0,5.469-2.36,1.66,1.66,0,0,1,.425-.32c.558-.25,1.115.213,1.611.616a11.576,11.576,0,0,1-1.374,2.841,5.912,5.912,0,0,1-4.31,2.7,14.242,14.242,0,0,0-2.619.117c-.844.225-1.633,1.091-1.334,1.913.293.8,1.328.977,2.181,1.023a9.689,9.689,0,0,0,3.555-.25c.693-.231,1.328-.613,2-.893,2.868-1.189,6.492-.524,8.861-2.533a5.245,5.245,0,0,1,.724-.555C300.6,779.77,299.46,781.569,298.36,782.32Z" transform="translate(-253.231 -490.802)" fill="#e8eaf2"/><path d="M298.36,782.32a9.121,9.121,0,0,1-4.042,1.232,12.936,12.936,0,0,0-4.144.946,27.359,27.359,0,0,1-3.2,1.83,6.669,6.669,0,0,1-3.324.052,5.488,5.488,0,0,1-3.42-2.309,5.7,5.7,0,0,1-.478-3.472q.152-2.01.3-4.027a1.917,1.917,0,0,1,.25-.974c.949-1.383,3.257.579,4.492.576a8.685,8.685,0,0,0,5.469-2.36,1.66,1.66,0,0,1,.425-.32c.558-.25,1.115.213,1.611.616a11.576,11.576,0,0,1-1.374,2.841,5.912,5.912,0,0,1-4.31,2.7,14.242,14.242,0,0,0-2.619.117c-.844.225-1.633,1.091-1.334,1.913.293.8,1.328.977,2.181,1.023a9.689,9.689,0,0,0,3.555-.25c.693-.231,1.328-.613,2-.893,2.868-1.189,6.492-.524,8.861-2.533a5.245,5.245,0,0,1,.724-.555C300.6,779.77,299.46,781.569,298.36,782.32Z" transform="translate(-253.231 -490.802)" opacity="0.05"/><path d="M248.238,569.942a17.638,17.638,0,0,0,2.417,13.014,24.3,24.3,0,0,1,1.965,3.151,14.322,14.322,0,0,1,.767,2.5l2.178,9.013a24.477,24.477,0,0,1,1,7.41c-.123,1.74-.562,3.7.511,5.072a3.738,3.738,0,0,1,.648.889,2.25,2.25,0,0,1,.011,1.171c-1.1,6.544-1.919,13.385.071,19.715,1.8,5.738,1.907,12.1,3.44,17.911a4,4,0,0,0,.953,1.986,3.124,3.124,0,0,0,1.428.679,10.542,10.542,0,0,0,6.754-1.069c1.481-.686,3.076-1.89,2.949-3.518a7.133,7.133,0,0,0-.82-2.166,15.312,15.312,0,0,1-.813-4.477c-.408-3.8-1.58-7.475-2.466-11.2s-1.488-7.609-.739-11.359a99.365,99.365,0,0,1,7.308-22.482,2.712,2.712,0,0,1,.669-1.007,6.919,6.919,0,0,0,.947-.647,2.859,2.859,0,0,0,.433-1.179c.33-1.187,1.309-2.063,1.965-3.106,1.657-2.633,1.132-6.007,1.071-9.117-.06-3.025.376-6.077-.12-9.061s-2.206-6.035-5.083-6.97a10.937,10.937,0,0,0-4.457-.211A87.839,87.839,0,0,0,248.238,569.942Z" transform="translate(-234.233 -366.199)" fill="#2f2e41"/><path d="M248.238,569.942a17.638,17.638,0,0,0,2.417,13.014,24.3,24.3,0,0,1,1.965,3.151,14.322,14.322,0,0,1,.767,2.5l2.178,9.013a24.477,24.477,0,0,1,1,7.41c-.123,1.74-.562,3.7.511,5.072a3.738,3.738,0,0,1,.648.889,2.25,2.25,0,0,1,.011,1.171c-1.1,6.544-1.919,13.385.071,19.715,1.8,5.738,1.907,12.1,3.44,17.911a4,4,0,0,0,.953,1.986,3.124,3.124,0,0,0,1.428.679,10.542,10.542,0,0,0,6.754-1.069c1.481-.686,3.076-1.89,2.949-3.518a7.133,7.133,0,0,0-.82-2.166,15.312,15.312,0,0,1-.813-4.477c-.408-3.8-1.58-7.475-2.466-11.2s-1.488-7.609-.739-11.359a99.365,99.365,0,0,1,7.308-22.482,2.712,2.712,0,0,1,.669-1.007,6.919,6.919,0,0,0,.947-.647,2.859,2.859,0,0,0,.433-1.179c.33-1.187,1.309-2.063,1.965-3.106,1.657-2.633,1.132-6.007,1.071-9.117-.06-3.025.376-6.077-.12-9.061s-2.206-6.035-5.083-6.97a10.937,10.937,0,0,0-4.457-.211A87.839,87.839,0,0,0,248.238,569.942Z" transform="translate(-234.233 -366.199)" opacity="0.1"/><path d="M279.024,591.07a18.893,18.893,0,0,1-.4,3.5q-2.089,11.715-4.452,23.381c-.139.675-.274,1.349-.456,2.012a16.317,16.317,0,0,1-3.016,5.934c-6.565,8.183-7.132,20.066-10.694,29.935-.24.669-.481,1.337-.736,2a49.852,49.852,0,0,1-2.2,4.9,1.4,1.4,0,0,1-.453.585,1.342,1.342,0,0,1-.715.139,20.864,20.864,0,0,1-9.252-2.1,1.916,1.916,0,0,1-.983-.816,1.975,1.975,0,0,1-.1-.94,13.2,13.2,0,0,1,1.152-5.7,12.169,12.169,0,0,1,2.28-2.764,104.8,104.8,0,0,1,2.234-18.289,24.9,24.9,0,0,1,3.33-8.756c1.312-1.913,3.2-3.8,2.964-6.109-.1-1.014-.527-2.277.3-2.872.36-.262.893-.3,1.137-.668a1.27,1.27,0,0,0,.16-.573,14.149,14.149,0,0,0-.293-4.735,24.981,24.981,0,0,1-.706-3.087,3.892,3.892,0,0,1,.776-2.982c.043-2.107-.015-4.295.028-6.4a11.866,11.866,0,0,0-.3-3.574c-.16-.552-.4-1.078-.527-1.642-.441-2.024.659-4.449-.65-6.054a8.893,8.893,0,0,0-2.1-1.479,7.711,7.711,0,0,1-2.884-4.147,22.888,22.888,0,0,1-.816-5.077,5.228,5.228,0,0,1-.012-1.1,2.009,2.009,0,0,1,.148-.548,3.349,3.349,0,0,1,2.474-1.5,80.114,80.114,0,0,1,18.892-2.209c2.354-1.6,3.679-1.029,4.677.668a17.544,17.544,0,0,1,1.331,3.25c.456,1.377.484,9.086.927,10.469C280.669,585.509,279,589.181,279.024,591.07Z" transform="translate(-232.841 -368.357)" fill="#2f2e41"/><path d="M222.681,446.862c-.175,1.213.408,2.4.473,3.629a13.684,13.684,0,0,1-.479,3.166c-.76,4.109.7,8.271,2.186,12.177a6.274,6.274,0,0,1,.519,2c.04,1.275-.694,2.443-.9,3.7-.423,2.646,1.53,5.136,1.57,7.815.019,1.234-.37,2.489-.061,3.684a13.018,13.018,0,0,0,1.057,2.226c.626,1.318.794,2.814,1.391,4.145,1.079,2.406,3.4,3.977,5.605,5.42a5.737,5.737,0,0,0,3.3-2.045,5.067,5.067,0,0,0,.576-1.794,46.713,46.713,0,0,0,.443-8.322,51.317,51.317,0,0,0-.381-7.163c-.446-3.022-1.426-5.937-2.13-8.91-.887-3.75-1.342-7.624-2.724-11.221a38.17,38.17,0,0,0-5.1-8.716c-.76-1.037-1.359-2.519-2.834-2.28A3.091,3.091,0,0,0,222.681,446.862Z" transform="translate(-219.056 -294.297)" fill="#3f3d56"/><path d="M222.681,446.862c-.175,1.213.408,2.4.473,3.629a13.684,13.684,0,0,1-.479,3.166c-.76,4.109.7,8.271,2.186,12.177a6.274,6.274,0,0,1,.519,2c.04,1.275-.694,2.443-.9,3.7-.423,2.646,1.53,5.136,1.57,7.815.019,1.234-.37,2.489-.061,3.684a13.018,13.018,0,0,0,1.057,2.226c.626,1.318.794,2.814,1.391,4.145,1.079,2.406,3.4,3.977,5.605,5.42a5.737,5.737,0,0,0,3.3-2.045,5.067,5.067,0,0,0,.576-1.794,46.713,46.713,0,0,0,.443-8.322,51.317,51.317,0,0,0-.381-7.163c-.446-3.022-1.426-5.937-2.13-8.91-.887-3.75-1.342-7.624-2.724-11.221a38.17,38.17,0,0,0-5.1-8.716c-.76-1.037-1.359-2.519-2.834-2.28A3.091,3.091,0,0,0,222.681,446.862Z" transform="translate(-219.056 -294.297)" opacity="0.05"/><ellipse cx="11.441" cy="11.441" rx="11.441" ry="11.441" transform="translate(19.099 108.224)" fill="#a0616a"/><path d="M258.854,410.528c-.5.577-1.168,1.213-1.908,1.027a2.606,2.606,0,0,1-.742-.4,11.19,11.19,0,0,0-4.489-1.283,66.238,66.238,0,0,1-9.245-2.079,9.43,9.43,0,0,0-2.735-.556,6.656,6.656,0,0,0-4.873,2.81c-1.215,1.511-2.076,3.279-3.269,4.809-.85,1.09-1.861,2.05-2.655,3.181a13.922,13.922,0,0,0-1.916,10.03,41.355,41.355,0,0,0,3.261,9.911,34.442,34.442,0,0,0,2.663,5.368,12.783,12.783,0,0,0,1.029,7.969,7.87,7.87,0,0,1,1.037,2.369,5.928,5.928,0,0,1-.072,1.737l-.582,4.142c-.177,1.261-.355,2.523-.584,3.776-.42,2.293-.99,4.781.071,6.856,1.272,2.485-.064,5.67.27,8.441a42.463,42.463,0,0,1,11.148-2.649,40.043,40.043,0,0,0,7.335-.962c1.481-.431,2.886-1.113,4.39-1.457a20.236,20.236,0,0,1,3.7-.378,43.8,43.8,0,0,1,8.216.184c.22.033.487.05.619-.129a.579.579,0,0,0,.082-.323,5.471,5.471,0,0,0-.7-2.913,3.988,3.988,0,0,1-.813-1.909,2.9,2.9,0,0,1,.238-.948l1.2-3.207c1.015-2.707.532-5.852,1.059-8.694a51.037,51.037,0,0,0,.79-6.726c.1-1.929.037-4.018-1.127-5.56a6.391,6.391,0,0,1-.88-1.223,3.713,3.713,0,0,1-.209-1.463q-.039-5.79.318-11.574c-1.015-1.823-2.073-3.687-3.088-5.511a23.54,23.54,0,0,1-2.856-6.668c-.316-1.576-.3-3.2-.531-4.791a2.092,2.092,0,0,0-.4-1.119,2.036,2.036,0,0,0-1.629-.484A7.21,7.21,0,0,0,258.854,410.528Z" transform="translate(-221.657 -272.135)" fill="#3f3d56"/><path d="M311.439,419.86a8.066,8.066,0,0,0,2.41,2.274,7.734,7.734,0,0,0,3.755.576,89.741,89.741,0,0,0,15.693-1.724,9.8,9.8,0,0,0,1.728-.463,9.1,9.1,0,0,0,1.747-1.09,22.348,22.348,0,0,0,4.723-4.119,13.849,13.849,0,0,0,2.8-6.866,11.241,11.241,0,0,0,2.5-4.3,6.57,6.57,0,0,0,.57-2.09c.033-.74-.457-1.516-.322-2.244a5.931,5.931,0,0,1,1.815-3.266,1.191,1.191,0,0,0,.432-.574.925.925,0,0,0-.1-.559,4.322,4.322,0,0,0-2.98-2.238,12.792,12.792,0,0,0-3.84-.152,8.975,8.975,0,0,0-1.258.334l-.895,2.356a3.048,3.048,0,0,1-.585,1.075,5.487,5.487,0,0,1-.635.5,3.633,3.633,0,0,0-1.259,3.175,3.412,3.412,0,0,0-2.018,4.212,4.021,4.021,0,0,0-2.95,2.6,1.942,1.942,0,0,1-.385.808,1.569,1.569,0,0,1-1.03.317c-1.011.063-1.9.859-2.811.427a5.715,5.715,0,0,0-3.339-.467,2.512,2.512,0,0,1-.712.063,1.883,1.883,0,0,1-.584-.2,4.676,4.676,0,0,0-1.325-.521,1.241,1.241,0,0,0-1.257.486c-.321-.352-.512-.8-.8-1.178a1.29,1.29,0,0,0-1.22-.582c.3-.271-.007-.811-.4-.91a5.165,5.165,0,0,0-1.217.044c-1.058-.006-1.87-.966-2.9-1.218-.945-.231-2.2.045-2.688-.8-.172-.3-.205-.7-.5-.888a.96.96,0,0,0-.638-.074,6.238,6.238,0,0,0-1.93.586c-.991,3.875-.471,7.9.284,11.827a10.435,10.435,0,0,0,2.127,4.875Z" transform="translate(-270.421 -263.598)" fill="#3f3d56"/><path d="M252.916,404.867a11.574,11.574,0,0,0-4.095-1.348,8.628,8.628,0,0,0-2.605-.187c-.805.1-1.578.411-2.389.457a10.641,10.641,0,0,1-3.327-.7,3.907,3.907,0,0,0-3.293.249,1.422,1.422,0,0,1-.717.381,1.254,1.254,0,0,1-.741-.363,4.221,4.221,0,0,0-5.261.277c-2.1,1.967-1.86,5.81-4.319,7.3-.678.411-1.544.629-1.939,1.316a4.854,4.854,0,0,1-.334.633,1.714,1.714,0,0,1-.591.421,11.485,11.485,0,0,0-2.026,1.165,2.9,2.9,0,0,0-1.166,1.955,3.683,3.683,0,0,0,.358,1.644,15.427,15.427,0,0,0,14.992,9.586,2.373,2.373,0,0,0,1.57-.49,2.964,2.964,0,0,0,.55-.907c1.156-2.423,3.326-4.212,4.7-6.516.821-1.373,1.349-2.909,2.2-4.261a20.512,20.512,0,0,1,5.2-5.034,6,6,0,0,1,3.667-1.64c1.218.052,2.1.117,1.658-1.377A4.787,4.787,0,0,0,252.916,404.867Z" transform="translate(-217.65 -269.345)" fill="#3f3d56"/><path d="M252.916,404.867a11.574,11.574,0,0,0-4.095-1.348,8.628,8.628,0,0,0-2.605-.187c-.805.1-1.578.411-2.389.457a10.641,10.641,0,0,1-3.327-.7,3.907,3.907,0,0,0-3.293.249,1.422,1.422,0,0,1-.717.381,1.254,1.254,0,0,1-.741-.363,4.221,4.221,0,0,0-5.261.277c-2.1,1.967-1.86,5.81-4.319,7.3-.678.411-1.544.629-1.939,1.316a4.854,4.854,0,0,1-.334.633,1.714,1.714,0,0,1-.591.421,11.485,11.485,0,0,0-2.026,1.165,2.9,2.9,0,0,0-1.166,1.955,3.683,3.683,0,0,0,.358,1.644,15.427,15.427,0,0,0,14.992,9.586,2.373,2.373,0,0,0,1.57-.49,2.964,2.964,0,0,0,.55-.907c1.156-2.423,3.326-4.212,4.7-6.516.821-1.373,1.349-2.909,2.2-4.261a20.512,20.512,0,0,1,5.2-5.034,6,6,0,0,1,3.667-1.64c1.218.052,2.1.117,1.658-1.377A4.787,4.787,0,0,0,252.916,404.867Z" transform="translate(-217.65 -269.345)" opacity="0.05"/><path d="M271.236,806.357a6.385,6.385,0,0,1-3.075,1.353,55.408,55.408,0,0,1-7.653.946c-.832.062-1.667.126-2.5.191-2.44.185-4.883.373-7.333.382a50.565,50.565,0,0,1-9.018-.779.765.765,0,0,1-.823-.915,43.687,43.687,0,0,1,1.109-9.052c.283-1.22,2.471,1.516,2.57,1.63a2.5,2.5,0,0,0,1.987,1.057c2.517.139,5.336-1.393,7.336-2.754a9.387,9.387,0,0,1,1.359-.841,4,4,0,0,1,1.1-.314,6.64,6.64,0,0,1,3.743.758c1.5.746,2.822,1.818,4.31,2.585a12.115,12.115,0,0,0,3.863,1.223c1.362.188,2.989.277,3.688,1.457a.012.012,0,0,1,0,.009A2.59,2.59,0,0,1,271.236,806.357Z" transform="translate(-230.016 -505.018)" fill="#2f2e41"/><path d="M270.59,806.85a6.386,6.386,0,0,1-3.075,1.353,55.418,55.418,0,0,1-7.653.946c-.832.062-1.667.126-2.5.191-2.44.185-4.883.373-7.333.382a50.565,50.565,0,0,1-9.018-.779,1,1,0,0,1-.715-.345,4,4,0,0,1-.559-1.021,44.372,44.372,0,0,1,1.56-9.052c.284-1.22,2.471,1.516,2.57,1.63a2.5,2.5,0,0,0,1.987,1.057c2.517.139,5.336-1.393,7.336-2.754a9.39,9.39,0,0,1,1.359-.841,4,4,0,0,1,1.1-.314c-.324,1.812-2.921,4-4.261,4.665-2.711,1.346-5.934.675-8.959.832a1.25,1.25,0,0,0-.635.154c-.364.24-.385.755-.373,1.189.025.721.117,1.568.742,1.935a2.141,2.141,0,0,0,1,.21,142.046,142.046,0,0,0,22.34-.783,12.281,12.281,0,0,0,3.639-.81,9.419,9.419,0,0,0,2.11-1.359C272.211,804.082,271.416,806.08,270.59,806.85Z" transform="translate(-229.37 -505.06)" fill="#e8eaf2"/><path d="M274.859,350.733c-.043,1.183.764,3.478-1.448,2.838-1.319-.382-1.691-1.944-3.364-1.6-1.688.354-2.058,2.409-2.625,3.759a7.193,7.193,0,0,1-5.213,4.212,3.139,3.139,0,0,1-1.436,0,3.861,3.861,0,0,1-2.135-2.452,19.241,19.241,0,0,1-.946-2.693,11.372,11.372,0,0,1-.342-1.975v0a8.784,8.784,0,0,1-.006-1.365,11.086,11.086,0,0,1,3.691-7,33.01,33.01,0,0,1,6.692-4.517,9.773,9.773,0,0,1,2.468-1.1,8.306,8.306,0,0,1,2.607-.108,9.1,9.1,0,0,1,3.315.78,4.67,4.67,0,0,1,1.168.819,3.511,3.511,0,0,1,1.01,1.688c.425,1.738-.684,3.3-1.584,4.677C275.91,347.918,274.917,349.211,274.859,350.733Z" transform="translate(-239.869 -231.193)" fill="#2f2e41"/><path d="M270.042,340.381a10.082,10.082,0,0,1-.678.967,11.446,11.446,0,0,1-1.565,1.621,13.023,13.023,0,0,1-1.057.829,16.632,16.632,0,0,1-2.135,1.276,39.321,39.321,0,0,1-6.834,2.449q-2.283.665-4.569,1.328c-1.593,1.2-6.929,5.158-7.826,4.665-1.057-.582,4.734-4.682,4.734-4.682l.266.2A4.266,4.266,0,0,1,248.9,346.2a14.276,14.276,0,0,1-.046-5.792,6.856,6.856,0,0,1,3.321-4.572,7.746,7.746,0,0,0,2.252-1.269,1.6,1.6,0,0,0,.219-.3.973.973,0,0,0,.086-.157,2.132,2.132,0,0,1,.243-.471c.317-.367.893-.256,1.374-.2.052.006.1.012.154.015a2.434,2.434,0,0,0,.259.012c1.716.037,3.38-.918,5.118-.918,1.9,0,3.525,1.1,5.2,1.852.339.154.659.293.961.434a4.156,4.156,0,0,1,2.622,2.767A3.5,3.5,0,0,1,270.042,340.381Z" transform="translate(-232.661 -227.535)" fill="#3f3d56"/><path d="M257.605,372.823a2.113,2.113,0,0,0,.79.294,2.548,2.548,0,0,0,2.108-.316Z" transform="translate(-240.039 -251.57)" opacity="0.1"/></svg>